<svg width="363" height="250" viewBox="0 0 363 250" fill="none" xmlns="http://www.w3.org/2000/svg">
<path d="M268.807 31C268.564 27.9697 267.428 25.6061 265.398 23.9091C263.398 22.2121 260.352 21.3636 256.261 21.3636C253.655 21.3636 251.519 21.6818 249.852 22.3182C248.216 22.9242 247.004 23.7576 246.216 24.8182C245.428 25.8788 245.019 27.0909 244.988 28.4545C244.928 29.5757 245.125 30.5909 245.579 31.5C246.064 32.3788 246.822 33.1818 247.852 33.9091C248.882 34.6061 250.201 35.2424 251.807 35.8182C253.413 36.3939 255.322 36.9091 257.534 37.3636L265.17 39C270.322 40.0909 274.731 41.5303 278.398 43.3182C282.064 45.106 285.064 47.2121 287.398 49.6364C289.731 52.0303 291.443 54.7273 292.534 57.7273C293.655 60.7273 294.231 64 294.261 67.5454C294.231 73.6667 292.701 78.8485 289.67 83.0909C286.64 87.3333 282.307 90.5606 276.67 92.7727C271.064 94.9848 264.322 96.0909 256.443 96.0909C248.352 96.0909 241.292 94.8939 235.261 92.5C229.261 90.1061 224.595 86.4242 221.261 81.4545C217.958 76.4545 216.292 70.0606 216.261 62.2727H240.261C240.413 65.1212 241.125 67.5151 242.398 69.4545C243.67 71.3939 245.458 72.8636 247.761 73.8636C250.095 74.8636 252.867 75.3636 256.079 75.3636C258.776 75.3636 261.034 75.0303 262.852 74.3636C264.67 73.697 266.049 72.7727 266.989 71.5909C267.928 70.4091 268.413 69.0606 268.443 67.5454C268.413 66.1212 267.943 64.8788 267.034 63.8182C266.155 62.7273 264.701 61.7576 262.67 60.9091C260.64 60.0303 257.898 59.2121 254.443 58.4545L245.17 56.4545C236.928 54.6667 230.428 51.6818 225.67 47.5C220.943 43.2879 218.595 37.5454 218.625 30.2727C218.595 24.3636 220.17 19.197 223.352 14.7727C226.564 10.3182 231.004 6.84847 236.67 4.36362C242.367 1.87878 248.898 0.636353 256.261 0.636353C263.776 0.636353 270.276 1.89393 275.761 4.40908C281.246 6.92423 285.473 10.4697 288.443 15.0454C291.443 19.5909 292.958 24.9091 292.989 31H268.807Z" fill="#101010"/>
<path d="M99.375 1.90908H130.83L152.466 54.6364H153.557L175.193 1.90908H206.648V95H181.92V41.1818H181.193L160.466 94.2727H145.557L124.83 40.8182H124.102V95H99.375V1.90908Z" fill="#101010"/>
<path d="M87.909 36.8182H62.2726C62.0908 34.697 61.6059 32.7727 60.8181 31.0454C60.0605 29.3182 58.9999 27.8333 57.6362 26.5909C56.3029 25.3182 54.6817 24.3485 52.7726 23.6818C50.8635 22.9848 48.6968 22.6364 46.2726 22.6364C42.0302 22.6364 38.4393 23.6667 35.4999 25.7273C32.5908 27.7879 30.3787 30.7424 28.8635 34.5909C27.3787 38.4394 26.6362 43.0606 26.6362 48.4545C26.6362 54.1515 27.3938 58.9242 28.909 62.7727C30.4544 66.5909 32.6817 69.4697 35.5908 71.4091C38.4999 73.3182 41.9999 74.2727 46.0908 74.2727C48.4241 74.2727 50.515 73.9848 52.3635 73.4091C54.212 72.803 55.818 71.9394 57.1817 70.8182C58.5453 69.697 59.6514 68.3485 60.4999 66.7727C61.3787 65.1667 61.9696 63.3636 62.2726 61.3636L87.909 61.5454C87.6059 65.4848 86.4999 69.5 84.5908 73.5909C82.6817 77.6515 79.9696 81.4091 76.4544 84.8636C72.9696 88.2879 68.6514 91.0454 63.4999 93.1364C58.3484 95.2273 52.3635 96.2727 45.5453 96.2727C36.9999 96.2727 29.3332 94.4394 22.5453 90.7727C15.7877 87.1061 10.4393 81.7121 6.49987 74.5909C2.59078 67.4697 0.63623 58.7576 0.63623 48.4545C0.63623 38.0909 2.63623 29.3636 6.63623 22.2727C10.6362 15.1515 16.0302 9.77272 22.818 6.13635C29.6059 2.46969 37.1817 0.636353 45.5453 0.636353C51.4241 0.636353 56.8332 1.43938 61.7726 3.04544C66.712 4.6515 71.0453 6.99999 74.7726 10.0909C78.4999 13.1515 81.4999 16.9242 83.7726 21.4091C86.0453 25.8939 87.4241 31.0303 87.909 36.8182Z" fill="#101010"/>
<path d="M87.624 110.48C84.648 110.48 82.392 109.6 80.856 107.84C79.352 106.048 78.824 103.664 79.272 100.688L80.52 92.912C81 89.808 82.248 87.408 84.264 85.712C86.28 83.984 88.856 83.12 91.992 83.12C93.912 83.12 95.544 83.504 96.888 84.272C98.232 85.04 99.208 86.112 99.816 87.488C100.456 88.832 100.632 90.416 100.344 92.24H97.176C97.464 90.256 97.096 88.72 96.072 87.632C95.048 86.544 93.528 86 91.512 86C89.432 86 87.688 86.608 86.28 87.824C84.904 89.008 84.04 90.704 83.688 92.912L82.44 100.688C82.12 102.864 82.456 104.56 83.448 105.776C84.472 106.992 86.024 107.6 88.104 107.6C90.12 107.6 91.8 107.056 93.144 105.968C94.52 104.848 95.384 103.312 95.736 101.36H98.904C98.424 104.272 97.192 106.528 95.208 108.128C93.224 109.696 90.696 110.48 87.624 110.48ZM115.973 110.48C113.029 110.48 110.821 109.6 109.349 107.84C107.877 106.08 107.381 103.696 107.861 100.688L109.061 92.912C109.541 89.872 110.773 87.488 112.757 85.76C114.741 84 117.269 83.12 120.341 83.12C123.285 83.12 125.493 84.016 126.965 85.808C128.437 87.568 128.933 89.936 128.453 92.912L127.253 100.688C126.741 103.76 125.493 106.16 123.509 107.888C121.557 109.616 119.045 110.48 115.973 110.48ZM116.405 107.696C118.485 107.696 120.197 107.088 121.541 105.872C122.885 104.656 123.733 102.928 124.085 100.688L125.285 92.912C125.637 90.672 125.333 88.944 124.373 87.728C123.445 86.512 121.957 85.904 119.909 85.904C117.829 85.904 116.117 86.512 114.773 87.728C113.461 88.944 112.613 90.672 112.229 92.912L111.029 100.688C110.677 102.928 110.965 104.656 111.893 105.872C112.853 107.088 114.357 107.696 116.405 107.696ZM148.403 110C146.163 110 144.515 109.392 143.459 108.176C142.403 106.96 142.051 105.28 142.403 103.136L146.387 77.84H137.555L138.035 74.96H150.035L145.571 103.136C145.347 104.416 145.523 105.408 146.099 106.112C146.675 106.784 147.587 107.12 148.835 107.12H156.995L156.562 110H148.403ZM177.184 110C174.944 110 173.296 109.392 172.24 108.176C171.184 106.96 170.832 105.28 171.184 103.136L175.168 77.84H166.336L166.816 74.96H178.816L174.352 103.136C174.128 104.416 174.304 105.408 174.88 106.112C175.456 106.784 176.368 107.12 177.616 107.12H185.776L185.344 110H177.184ZM202.365 110.48C199.325 110.48 197.069 109.568 195.597 107.744C194.157 105.92 193.677 103.504 194.157 100.496L195.309 93.104C195.821 89.936 197.069 87.488 199.053 85.76C201.037 84 203.597 83.12 206.733 83.12C208.653 83.12 210.285 83.504 211.629 84.272C212.973 85.008 213.949 86.016 214.557 87.296C215.165 88.576 215.341 90.016 215.085 91.616C214.797 93.568 214.013 95.056 212.733 96.08C211.485 97.072 209.837 97.568 207.789 97.568H197.757L197.277 100.688C196.925 102.864 197.229 104.576 198.189 105.824C199.149 107.072 200.685 107.696 202.797 107.696C204.493 107.696 205.981 107.328 207.261 106.592C208.541 105.824 209.405 104.768 209.853 103.424H213.021C212.317 105.664 211.021 107.408 209.133 108.656C207.277 109.872 205.021 110.48 202.365 110.48ZM198.189 94.928H208.221C210.333 94.928 211.565 93.824 211.917 91.616C212.173 89.984 211.805 88.608 210.813 87.488C209.821 86.368 208.317 85.808 206.301 85.808C204.157 85.808 202.397 86.432 201.021 87.68C199.677 88.928 198.829 90.672 198.477 92.912L198.189 94.928ZM231.53 110.48C228.554 110.48 226.298 109.6 224.762 107.84C223.258 106.048 222.73 103.664 223.178 100.688L224.426 92.912C224.906 89.808 226.154 87.408 228.17 85.712C230.186 83.984 232.762 83.12 235.898 83.12C237.818 83.12 239.45 83.504 240.794 84.272C242.138 85.04 243.114 86.112 243.722 87.488C244.362 88.832 244.538 90.416 244.25 92.24H241.082C241.37 90.256 241.002 88.72 239.978 87.632C238.954 86.544 237.434 86 235.418 86C233.338 86 231.594 86.608 230.186 87.824C228.81 89.008 227.946 90.704 227.594 92.912L226.346 100.688C226.026 102.864 226.362 104.56 227.354 105.776C228.378 106.992 229.93 107.6 232.01 107.6C234.026 107.6 235.706 107.056 237.05 105.968C238.426 104.848 239.29 103.312 239.642 101.36H242.81C242.33 104.272 241.098 106.528 239.114 108.128C237.13 109.696 234.602 110.48 231.53 110.48ZM262.616 110C260.536 110 259 109.44 258.008 108.32C257.016 107.2 256.68 105.632 257 103.616L259.736 86.48H252.008L252.44 83.6H260.168L261.368 76.16H264.536L263.336 83.6H274.28L273.848 86.48H262.904L260.168 103.616C260.008 104.736 260.168 105.6 260.648 106.208C261.16 106.816 261.96 107.12 263.048 107.12H270.296L269.864 110H262.616ZM278.629 110L279.061 107.12H288.613L291.877 86.48H283.573L284.005 83.6H295.525L291.781 107.12H300.757L300.325 110H278.629ZM294.421 78.656C293.493 78.656 292.789 78.416 292.309 77.936C291.861 77.424 291.701 76.736 291.829 75.872C291.957 75.008 292.325 74.32 292.933 73.808C293.573 73.296 294.357 73.04 295.285 73.04C296.213 73.04 296.901 73.296 297.349 73.808C297.829 74.32 298.005 75.008 297.877 75.872C297.749 76.736 297.365 77.424 296.725 77.936C296.117 78.416 295.349 78.656 294.421 78.656ZM317.442 110.48C314.498 110.48 312.29 109.6 310.818 107.84C309.346 106.08 308.85 103.696 309.33 100.688L310.53 92.912C311.01 89.872 312.242 87.488 314.226 85.76C316.21 84 318.738 83.12 321.81 83.12C324.754 83.12 326.962 84.016 328.434 85.808C329.906 87.568 330.402 89.936 329.922 92.912L328.722 100.688C328.21 103.76 326.962 106.16 324.978 107.888C323.026 109.616 320.514 110.48 317.442 110.48ZM317.874 107.696C319.954 107.696 321.666 107.088 323.01 105.872C324.354 104.656 325.202 102.928 325.554 100.688L326.754 92.912C327.106 90.672 326.802 88.944 325.842 87.728C324.914 86.512 323.426 85.904 321.378 85.904C319.298 85.904 317.586 86.512 316.242 87.728C314.93 88.944 314.082 90.672 313.698 92.912L312.498 100.688C312.146 102.928 312.434 104.656 313.362 105.872C314.322 107.088 315.826 107.696 317.874 107.696ZM336.863 110L341.039 83.6H344.207L343.439 88.208C344.079 86.608 345.103 85.36 346.511 84.464C347.919 83.568 349.583 83.12 351.503 83.12C354.127 83.12 356.095 83.952 357.407 85.616C358.719 87.28 359.151 89.52 358.703 92.336L355.871 110H352.703L355.439 92.816C355.791 90.608 355.503 88.896 354.575 87.68C353.647 86.432 352.223 85.808 350.303 85.808C348.319 85.808 346.639 86.448 345.263 87.728C343.919 88.976 343.071 90.704 342.719 92.912L340.031 110H336.863Z" fill="white"/>
<path d="M76.2 173L80.376 146.6H83.16L82.584 150.152H82.68C83.032 148.936 83.656 147.96 84.552 147.224C85.48 146.488 86.568 146.12 87.816 146.12C89.032 146.12 89.992 146.472 90.696 147.176C91.432 147.848 91.864 148.776 91.992 149.96C92.376 148.776 93.032 147.848 93.96 147.176C94.888 146.472 95.992 146.12 97.272 146.12C98.904 146.12 100.104 146.712 100.872 147.896C101.672 149.048 101.912 150.6 101.592 152.552L98.376 173H95.352L98.568 152.696C98.76 151.48 98.616 150.504 98.136 149.768C97.656 149.032 96.904 148.664 95.88 148.664C94.856 148.664 93.976 149.032 93.24 149.768C92.536 150.472 92.088 151.448 91.896 152.696L88.68 173H85.896L89.064 152.696C89.288 151.48 89.16 150.504 88.68 149.768C88.2 149.032 87.464 148.664 86.472 148.664C85.416 148.664 84.52 149.032 83.784 149.768C83.08 150.472 82.632 151.448 82.44 152.696L79.224 173H76.2ZM114.197 173.48C111.797 173.48 109.989 172.584 108.773 170.792C107.557 169 107.173 166.68 107.621 163.832L108.869 155.816C109.189 153.896 109.813 152.216 110.741 150.776C111.669 149.304 112.805 148.168 114.149 147.368C115.493 146.536 116.965 146.12 118.565 146.12C120.261 146.12 121.637 146.568 122.693 147.464C123.749 148.36 124.357 149.56 124.517 151.064L125.189 146.6H128.357L125.045 167.528C124.917 168.296 125.061 168.92 125.477 169.4C125.893 169.88 126.469 170.12 127.205 170.12H129.365L128.933 173H126.677C125.173 173 124.037 172.52 123.269 171.56C122.533 170.568 122.277 169.32 122.501 167.816C121.893 169.544 120.837 170.92 119.333 171.944C117.861 172.968 116.149 173.48 114.197 173.48ZM115.493 170.744C117.317 170.744 118.853 170.12 120.101 168.872C121.349 167.592 122.149 165.88 122.501 163.736L123.701 155.912C124.021 153.736 123.765 152.024 122.933 150.776C122.101 149.496 120.789 148.856 118.997 148.856C117.205 148.856 115.669 149.496 114.389 150.776C113.141 152.024 112.357 153.736 112.037 155.912L110.837 163.736C110.485 165.88 110.725 167.592 111.557 168.872C112.421 170.12 113.733 170.744 115.493 170.744ZM135.395 173L139.571 146.6H142.739L141.971 151.208C142.611 149.608 143.635 148.36 145.043 147.464C146.451 146.568 148.115 146.12 150.035 146.12C152.659 146.12 154.627 146.952 155.939 148.616C157.251 150.28 157.682 152.52 157.234 155.336L154.403 173H151.235L153.971 155.816C154.323 153.608 154.035 151.896 153.107 150.68C152.179 149.432 150.755 148.808 148.835 148.808C146.851 148.808 145.171 149.448 143.795 150.728C142.451 151.976 141.603 153.704 141.251 155.912L138.562 173H135.395ZM171.76 173.48C169.36 173.48 167.552 172.584 166.336 170.792C165.12 169 164.736 166.68 165.184 163.832L166.432 155.816C166.752 153.896 167.376 152.216 168.304 150.776C169.232 149.304 170.368 148.168 171.712 147.368C173.056 146.536 174.528 146.12 176.128 146.12C177.824 146.12 179.2 146.568 180.256 147.464C181.312 148.36 181.92 149.56 182.08 151.064L182.752 146.6H185.92L182.608 167.528C182.48 168.296 182.624 168.92 183.04 169.4C183.456 169.88 184.032 170.12 184.768 170.12H186.928L186.496 173H184.24C182.736 173 181.6 172.52 180.832 171.56C180.096 170.568 179.84 169.32 180.064 167.816C179.456 169.544 178.4 170.92 176.896 171.944C175.424 172.968 173.712 173.48 171.76 173.48ZM173.056 170.744C174.88 170.744 176.416 170.12 177.664 168.872C178.912 167.592 179.712 165.88 180.064 163.736L181.264 155.912C181.584 153.736 181.328 152.024 180.496 150.776C179.664 149.496 178.352 148.856 176.56 148.856C174.768 148.856 173.232 149.496 171.952 150.776C170.704 152.024 169.92 153.736 169.6 155.912L168.4 163.736C168.048 165.88 168.288 167.592 169.12 168.872C169.984 170.12 171.296 170.744 173.056 170.744ZM194.733 181.64L195.213 178.76H202.365C204.093 178.76 205.501 178.296 206.589 177.368C207.677 176.472 208.365 175.16 208.653 173.432L208.989 171.176L209.805 166.136C209.197 167.704 208.173 168.936 206.733 169.832C205.325 170.696 203.677 171.128 201.789 171.128C199.101 171.128 197.101 170.264 195.789 168.536C194.509 166.776 194.093 164.44 194.541 161.528L195.453 155.816C195.901 152.84 197.053 150.488 198.909 148.76C200.765 147 203.053 146.12 205.773 146.12C207.661 146.12 209.165 146.568 210.285 147.464C211.405 148.36 212.029 149.592 212.157 151.16L212.877 146.6H216.045L211.821 173.432C211.373 176.056 210.285 178.072 208.557 179.48C206.829 180.92 204.589 181.64 201.837 181.64H194.733ZM202.989 168.44C205.005 168.44 206.685 167.832 208.029 166.616C209.373 165.368 210.221 163.64 210.573 161.432L211.389 155.912C211.741 153.704 211.453 151.976 210.525 150.728C209.597 149.48 208.125 148.856 206.109 148.856C204.093 148.856 202.429 149.464 201.117 150.68C199.805 151.896 198.973 153.576 198.621 155.72L197.709 161.624C197.357 163.736 197.645 165.4 198.573 166.616C199.533 167.832 201.005 168.44 202.989 168.44ZM231.146 173.48C228.106 173.48 225.85 172.568 224.378 170.744C222.938 168.92 222.458 166.504 222.938 163.496L224.09 156.104C224.602 152.936 225.85 150.488 227.834 148.76C229.818 147 232.378 146.12 235.514 146.12C237.434 146.12 239.066 146.504 240.41 147.272C241.754 148.008 242.73 149.016 243.338 150.296C243.946 151.576 244.122 153.016 243.866 154.616C243.578 156.568 242.794 158.056 241.514 159.08C240.266 160.072 238.618 160.568 236.57 160.568H226.538L226.058 163.688C225.706 165.864 226.01 167.576 226.97 168.824C227.93 170.072 229.466 170.696 231.578 170.696C233.274 170.696 234.762 170.328 236.042 169.592C237.322 168.824 238.186 167.768 238.634 166.424H241.802C241.098 168.664 239.802 170.408 237.914 171.656C236.058 172.872 233.802 173.48 231.146 173.48ZM226.97 157.928H237.002C239.114 157.928 240.346 156.824 240.698 154.616C240.954 152.984 240.586 151.608 239.594 150.488C238.602 149.368 237.098 148.808 235.082 148.808C232.938 148.808 231.178 149.432 229.802 150.68C228.458 151.928 227.61 153.672 227.258 155.912L226.97 157.928ZM248.888 173L253.064 146.6H255.848L255.272 150.152H255.368C255.72 148.936 256.344 147.96 257.24 147.224C258.168 146.488 259.256 146.12 260.504 146.12C261.72 146.12 262.68 146.472 263.384 147.176C264.12 147.848 264.552 148.776 264.68 149.96C265.064 148.776 265.72 147.848 266.648 147.176C267.576 146.472 268.68 146.12 269.96 146.12C271.592 146.12 272.792 146.712 273.56 147.896C274.36 149.048 274.6 150.6 274.28 152.552L271.064 173H268.04L271.256 152.696C271.448 151.48 271.304 150.504 270.824 149.768C270.344 149.032 269.592 148.664 268.568 148.664C267.544 148.664 266.664 149.032 265.928 149.768C265.224 150.472 264.776 151.448 264.584 152.696L261.368 173H258.584L261.752 152.696C261.976 151.48 261.848 150.504 261.368 149.768C260.888 149.032 260.152 148.664 259.16 148.664C258.104 148.664 257.208 149.032 256.472 149.768C255.768 150.472 255.32 151.448 255.128 152.696L251.912 173H248.888ZM288.709 173.48C285.669 173.48 283.413 172.568 281.941 170.744C280.501 168.92 280.021 166.504 280.501 163.496L281.653 156.104C282.165 152.936 283.413 150.488 285.397 148.76C287.381 147 289.941 146.12 293.077 146.12C294.997 146.12 296.629 146.504 297.973 147.272C299.317 148.008 300.293 149.016 300.901 150.296C301.509 151.576 301.685 153.016 301.429 154.616C301.141 156.568 300.357 158.056 299.077 159.08C297.829 160.072 296.181 160.568 294.133 160.568H284.101L283.621 163.688C283.269 165.864 283.573 167.576 284.533 168.824C285.493 170.072 287.029 170.696 289.141 170.696C290.837 170.696 292.325 170.328 293.605 169.592C294.885 168.824 295.749 167.768 296.197 166.424H299.365C298.661 168.664 297.365 170.408 295.477 171.656C293.621 172.872 291.365 173.48 288.709 173.48ZM284.533 157.928H294.565C296.677 157.928 297.909 156.824 298.261 154.616C298.517 152.984 298.149 151.608 297.157 150.488C296.165 149.368 294.661 148.808 292.645 148.808C290.501 148.808 288.741 149.432 287.365 150.68C286.021 151.928 285.173 153.672 284.821 155.912L284.533 157.928ZM308.082 173L312.258 146.6H315.426L314.658 151.208C315.298 149.608 316.322 148.36 317.73 147.464C319.138 146.568 320.802 146.12 322.722 146.12C325.346 146.12 327.314 146.952 328.626 148.616C329.938 150.28 330.37 152.52 329.922 155.336L327.09 173H323.922L326.658 155.816C327.01 153.608 326.722 151.896 325.794 150.68C324.866 149.432 323.442 148.808 321.522 148.808C319.538 148.808 317.858 149.448 316.482 150.728C315.138 151.976 314.29 153.704 313.938 155.912L311.25 173H308.082ZM348.959 173C346.879 173 345.343 172.44 344.351 171.32C343.359 170.2 343.023 168.632 343.343 166.616L346.079 149.48H338.351L338.783 146.6H346.511L347.711 139.16H350.879L349.679 146.6H360.623L360.191 149.48H349.247L346.511 166.616C346.351 167.736 346.511 168.6 346.991 169.208C347.503 169.816 348.303 170.12 349.391 170.12H356.639L356.207 173H348.959Z" fill="white"/>
<path d="M85.896 236.432C83.272 236.432 81.272 235.776 79.896 234.464C78.552 233.152 77.976 231.408 78.168 229.232H81.336C81.272 230.544 81.688 231.616 82.584 232.448C83.48 233.248 84.744 233.648 86.376 233.648H89.304C90.968 233.648 92.344 233.232 93.432 232.4C94.552 231.536 95.224 230.4 95.448 228.992C95.672 227.712 95.496 226.624 94.92 225.728C94.376 224.832 93.48 224.304 92.232 224.144L85.992 223.28C84.04 223.024 82.568 222.304 81.576 221.12C80.584 219.904 80.248 218.336 80.568 216.416C80.92 214.112 81.944 212.336 83.64 211.088C85.368 209.808 87.576 209.168 90.264 209.168H92.664C95.128 209.168 97.032 209.776 98.376 210.992C99.752 212.208 100.392 213.808 100.296 215.792H97.08C97.144 214.672 96.728 213.744 95.832 213.008C94.968 212.272 93.768 211.904 92.232 211.904H89.832C88.168 211.904 86.776 212.304 85.656 213.104C84.568 213.904 83.912 214.992 83.688 216.368C83.336 218.704 84.488 220.048 87.144 220.4L93.144 221.216C95.16 221.504 96.648 222.336 97.608 223.712C98.6 225.056 98.92 226.752 98.568 228.8C98.184 231.264 97.16 233.152 95.496 234.464C93.832 235.776 91.608 236.432 88.824 236.432H85.896ZM108.101 244.64L108.581 241.76H116.213C119.573 241.76 121.525 240.112 122.069 236.816L122.597 233.504L123.365 228.848C122.725 230.48 121.701 231.76 120.293 232.688C118.885 233.616 117.205 234.08 115.253 234.08C112.661 234.08 110.709 233.248 109.397 231.584C108.085 229.92 107.653 227.68 108.101 224.864L110.501 209.6H113.669L111.317 224.48C110.997 226.656 111.285 228.352 112.181 229.568C113.109 230.784 114.549 231.392 116.501 231.392C118.485 231.392 120.149 230.768 121.493 229.52C122.869 228.24 123.733 226.496 124.085 224.288L126.389 209.6H129.557L125.237 236.816C124.821 239.344 123.797 241.28 122.165 242.624C120.533 243.968 118.389 244.64 115.733 244.64H108.101ZM143.459 236.432C140.835 236.432 138.835 235.776 137.459 234.464C136.115 233.152 135.539 231.408 135.73 229.232H138.898C138.835 230.544 139.251 231.616 140.147 232.448C141.043 233.248 142.307 233.648 143.939 233.648H146.867C148.531 233.648 149.907 233.232 150.995 232.4C152.115 231.536 152.787 230.4 153.011 228.992C153.235 227.712 153.059 226.624 152.483 225.728C151.939 224.832 151.043 224.304 149.795 224.144L143.555 223.28C141.603 223.024 140.131 222.304 139.139 221.12C138.147 219.904 137.811 218.336 138.131 216.416C138.483 214.112 139.507 212.336 141.203 211.088C142.931 209.808 145.139 209.168 147.827 209.168H150.227C152.691 209.168 154.595 209.776 155.939 210.992C157.315 212.208 157.955 213.808 157.859 215.792H154.643C154.707 214.672 154.291 213.744 153.395 213.008C152.531 212.272 151.331 211.904 149.795 211.904H147.395C145.731 211.904 144.339 212.304 143.219 213.104C142.131 213.904 141.475 214.992 141.251 216.368C140.899 218.704 142.051 220.048 144.707 220.4L150.707 221.216C152.723 221.504 154.211 222.336 155.171 223.712C156.163 225.056 156.483 226.752 156.131 228.8C155.747 231.264 154.723 233.152 153.059 234.464C151.395 235.776 149.171 236.432 146.387 236.432H143.459ZM176.272 236C174.192 236 172.656 235.44 171.664 234.32C170.672 233.2 170.336 231.632 170.656 229.616L173.392 212.48H165.664L166.096 209.6H173.824L175.024 202.16H178.192L176.992 209.6H187.936L187.504 212.48H176.56L173.824 229.616C173.664 230.736 173.824 231.6 174.304 232.208C174.816 232.816 175.616 233.12 176.704 233.12H183.952L183.52 236H176.272ZM202.365 236.48C199.325 236.48 197.069 235.568 195.597 233.744C194.157 231.92 193.677 229.504 194.157 226.496L195.309 219.104C195.821 215.936 197.069 213.488 199.053 211.76C201.037 210 203.597 209.12 206.733 209.12C208.653 209.12 210.285 209.504 211.629 210.272C212.973 211.008 213.949 212.016 214.557 213.296C215.165 214.576 215.341 216.016 215.085 217.616C214.797 219.568 214.013 221.056 212.733 222.08C211.485 223.072 209.837 223.568 207.789 223.568H197.757L197.277 226.688C196.925 228.864 197.229 230.576 198.189 231.824C199.149 233.072 200.685 233.696 202.797 233.696C204.493 233.696 205.981 233.328 207.261 232.592C208.541 231.824 209.405 230.768 209.853 229.424H213.021C212.317 231.664 211.021 233.408 209.133 234.656C207.277 235.872 205.021 236.48 202.365 236.48ZM198.189 220.928H208.221C210.333 220.928 211.565 219.824 211.917 217.616C212.173 215.984 211.805 214.608 210.813 213.488C209.821 212.368 208.317 211.808 206.301 211.808C204.157 211.808 202.397 212.432 201.021 213.68C199.677 214.928 198.829 216.672 198.477 218.912L198.189 220.928ZM220.106 236L224.282 209.6H227.066L226.49 213.152H226.586C226.938 211.936 227.562 210.96 228.458 210.224C229.386 209.488 230.474 209.12 231.722 209.12C232.938 209.12 233.898 209.472 234.602 210.176C235.338 210.848 235.77 211.776 235.898 212.96C236.282 211.776 236.938 210.848 237.866 210.176C238.794 209.472 239.898 209.12 241.178 209.12C242.81 209.12 244.01 209.712 244.778 210.896C245.578 212.048 245.818 213.6 245.498 215.552L242.282 236H239.258L242.474 215.696C242.666 214.48 242.522 213.504 242.042 212.768C241.562 212.032 240.81 211.664 239.786 211.664C238.762 211.664 237.882 212.032 237.146 212.768C236.442 213.472 235.994 214.448 235.802 215.696L232.586 236H229.802L232.97 215.696C233.194 214.48 233.066 213.504 232.586 212.768C232.106 212.032 231.37 211.664 230.378 211.664C229.322 211.664 228.426 212.032 227.69 212.768C226.986 213.472 226.538 214.448 226.346 215.696L223.13 236H220.106Z" fill="white"/>
</svg>
