<svg width="774" height="240" viewBox="0 0 774 240" fill="none" xmlns="http://www.w3.org/2000/svg">
<path fill-rule="evenodd" clip-rule="evenodd" d="M41.2672 234.274C46.2331 237.368 51.6668 238.916 57.5684 238.916C61.4547 238.916 64.9093 238.286 67.932 237.027C70.9907 235.731 73.5816 233.986 75.7047 231.791C77.8638 229.56 79.5191 227.041 80.6706 224.234H81.3184V237.836H110.898V154.927H81.1025V169.393H80.6706C79.5911 166.586 78.0078 164.013 75.9206 161.674C73.8335 159.299 71.2426 157.41 68.1479 156.007C65.0532 154.567 61.4547 153.848 57.3525 153.848C51.8828 153.848 46.665 155.305 41.699 158.22C36.7691 161.134 32.7388 165.723 29.6081 171.984C29.1062 173 28.6449 174.064 28.2243 175.179C35.2741 179.359 40.0001 187.046 40.0001 195.836C40.0001 204.74 35.1521 212.511 27.9519 216.653C28.3849 217.883 28.865 219.061 29.3922 220.186C32.379 226.483 36.3373 231.179 41.2672 234.274ZM75.5968 213.654C73.6536 215.238 71.3146 216.029 68.5797 216.029C65.8449 216.029 63.5059 215.256 61.5627 213.708C59.6555 212.125 58.1801 209.876 57.1365 206.961C56.129 204.01 55.6252 200.484 55.6252 196.382C55.6252 192.279 56.129 188.771 57.1365 185.856C58.1801 182.905 59.6555 180.656 61.5627 179.109C63.5059 177.526 65.8449 176.734 68.5797 176.734C71.3146 176.734 73.6536 177.526 75.5968 179.109C77.5759 180.656 79.0873 182.905 80.1309 185.856C81.2104 188.771 81.7502 192.279 81.7502 196.382C81.7502 200.412 81.2104 203.902 80.1309 206.853C79.0873 209.768 77.5759 212.035 75.5968 213.654ZM154.458 154.927H125.526V237.836H155.321V194.654C155.357 191.488 156.005 188.753 157.264 186.45C158.524 184.111 160.197 182.312 162.284 181.052C164.407 179.757 166.692 179.109 169.139 179.109C170.723 179.109 172.18 179.325 173.512 179.757C174.843 180.188 176.12 180.692 177.344 181.268L185.98 156.87C184.325 155.935 182.472 155.197 180.421 154.657C178.37 154.117 176.264 153.848 174.105 153.848C169.679 153.848 165.829 155.197 162.554 157.896C159.28 160.595 156.869 164.859 155.321 170.688H154.458V154.927ZM246.367 176.518V154.927H232.117V135.063H202.322V154.927H191.742V176.518H202.322V213.978C202.25 219.772 203.383 224.594 205.722 228.444C208.061 232.295 211.552 235.119 216.194 236.919C220.836 238.682 226.576 239.384 233.413 239.024C236.795 238.844 239.71 238.466 242.157 237.89C244.64 237.314 246.547 236.829 247.879 236.433L243.561 215.49C242.985 215.634 242.085 215.813 240.862 216.029C239.674 216.245 238.631 216.353 237.731 216.353C236.436 216.353 235.374 216.173 234.546 215.813C233.719 215.418 233.107 214.842 232.711 214.086C232.315 213.295 232.117 212.323 232.117 211.171V176.518H246.367Z" fill="white"/>
<path d="M32 195.836C32 204.673 24.8366 211.836 16 211.836C7.16344 211.836 0 204.673 0 195.836C0 187 7.16344 179.836 16 179.836C24.8366 179.836 32 187 32 195.836Z" fill="#25A3FF"/>
<path d="M730.766 120.348C721.769 120.348 714.069 118.567 707.663 115.004C701.258 111.406 696.346 106.404 692.928 99.9985C689.509 93.5572 687.8 86.0903 687.8 77.5979C687.8 69.1055 689.509 61.6566 692.928 55.2513C696.346 48.81 701.258 43.8081 707.663 40.2456C714.069 36.6471 721.769 34.8479 730.766 34.8479C739.762 34.8479 747.463 36.6471 753.868 40.2456C760.273 43.8081 765.185 48.81 768.604 55.2513C772.022 61.6566 773.732 69.1055 773.732 77.5979C773.732 86.0903 772.022 93.5572 768.604 99.9985C765.185 106.404 760.273 111.406 753.868 115.004C747.463 118.567 739.762 120.348 730.766 120.348ZM730.982 98.3252C733.501 98.3252 735.678 97.4795 737.513 95.7882C739.348 94.097 740.769 91.686 741.777 88.5553C742.785 85.4246 743.288 81.7002 743.288 77.382C743.288 73.0278 742.785 69.3034 741.777 66.2087C740.769 63.078 739.348 60.667 737.513 58.9757C735.678 57.2845 733.501 56.4388 730.982 56.4388C728.319 56.4388 726.034 57.2845 724.126 58.9757C722.219 60.667 720.762 63.078 719.754 66.2087C718.747 69.3034 718.243 73.0278 718.243 77.382C718.243 81.7002 718.747 85.4246 719.754 88.5553C720.762 91.686 722.219 94.097 724.126 95.7882C726.034 97.4795 728.319 98.3252 730.982 98.3252Z" fill="white"/>
<path d="M645.846 118.836V35.9273H675.641V118.836H645.846ZM660.744 27.291C656.713 27.291 653.259 25.9595 650.38 23.2967C647.501 20.6338 646.062 17.4311 646.062 13.6887C646.062 9.94627 647.501 6.74362 650.38 4.08074C653.259 1.41786 656.713 0.0864258 660.744 0.0864258C664.81 0.0864258 668.264 1.41786 671.107 4.08074C673.986 6.74362 675.425 9.94627 675.425 13.6887C675.425 17.4311 673.986 20.6338 671.107 23.2967C668.264 25.9595 664.81 27.291 660.744 27.291Z" fill="white"/>
<path d="M577.862 118.837V35.9274H606.793V51.6888H607.657C609.204 45.8593 611.615 41.5951 614.89 38.8962C618.165 36.1973 622.015 34.8479 626.441 34.8479C628.6 34.8479 630.705 35.1178 632.756 35.6576C634.808 36.1973 636.661 36.935 638.316 37.8706L629.68 62.2684C628.456 61.6926 627.179 61.1888 625.847 60.757C624.516 60.3252 623.059 60.1093 621.475 60.1093C619.028 60.1093 616.743 60.757 614.62 62.0524C612.533 63.3119 610.86 65.1112 609.6 67.4502C608.341 69.7532 607.693 72.4881 607.657 75.6547V118.837H577.862Z" fill="white"/>
<path d="M509.904 119.916C504.003 119.916 498.569 118.369 493.603 115.274C488.673 112.179 484.715 107.483 481.728 101.186C478.777 94.8886 477.302 86.954 477.302 77.382C477.302 67.3782 478.849 59.2456 481.944 52.9843C485.075 46.7229 489.105 42.1348 494.035 39.2201C499.001 36.3053 504.219 34.8479 509.688 34.8479C513.791 34.8479 517.389 35.5676 520.484 37.007C523.578 38.4104 526.169 40.2996 528.257 42.6746C530.344 45.0136 531.927 47.5865 533.007 50.3934H533.438V35.9274H563.234V118.837H533.654V105.234H533.007C531.855 108.041 530.2 110.56 528.041 112.791C525.918 114.986 523.327 116.731 520.268 118.027C517.245 119.286 513.791 119.916 509.904 119.916ZM520.916 97.0297C523.65 97.0297 525.99 96.2381 527.933 94.6547C529.912 93.0354 531.423 90.7684 532.467 87.8536C533.546 84.9028 534.086 81.4123 534.086 77.382C534.086 73.2797 533.546 69.7712 532.467 66.8564C531.423 63.9057 529.912 61.6566 527.933 60.1093C525.99 58.5259 523.65 57.7343 520.916 57.7343C518.181 57.7343 515.842 58.5259 513.899 60.1093C511.991 61.6566 510.516 63.9057 509.472 66.8564C508.465 69.7712 507.961 73.2797 507.961 77.382C507.961 81.4843 508.465 85.0108 509.472 87.9615C510.516 90.8763 511.991 93.1254 513.899 94.7087C515.842 96.256 518.181 97.0297 520.916 97.0297Z" fill="white"/>
<path d="M411.936 119.916C406.034 119.916 400.6 118.369 395.634 115.274C390.704 112.179 386.746 107.483 383.759 101.186C380.809 94.8885 379.333 86.9539 379.333 77.3819C379.333 67.3781 380.881 59.2456 383.975 52.9842C387.106 46.7228 391.136 42.1348 396.066 39.22C401.032 36.3052 406.25 34.8478 411.72 34.8478C415.822 34.8478 419.42 35.5675 422.515 37.0069C425.61 38.4103 428.201 40.2995 430.288 42.6745C432.375 45.0136 433.958 47.5865 435.038 50.3933H435.47V8.29102H465.265V118.836H435.686V105.234H435.038C433.886 108.041 432.231 110.56 430.072 112.791C427.949 114.986 425.358 116.731 422.299 118.027C419.276 119.286 415.822 119.916 411.936 119.916ZM422.947 97.0297C425.682 97.0297 428.021 96.238 429.964 94.6547C431.943 93.0353 433.454 90.7683 434.498 87.8535C435.578 84.9028 436.117 81.4122 436.117 77.3819C436.117 73.2797 435.578 69.7711 434.498 66.8564C433.454 63.9056 431.943 61.6566 429.964 60.1092C428.021 58.5259 425.682 57.7342 422.947 57.7342C420.212 57.7342 417.873 58.5259 415.93 60.1092C414.023 61.6566 412.547 63.9056 411.504 66.8564C410.496 69.7711 409.992 73.2797 409.992 77.3819C409.992 81.4842 410.496 85.0107 411.504 87.9615C412.547 90.8762 414.023 93.1253 415.93 94.7086C417.873 96.256 420.212 97.0297 422.947 97.0297Z" fill="white"/>
<path d="M336.948 118.836V35.9273H366.743V118.836H336.948ZM351.845 27.291C347.815 27.291 344.36 25.9595 341.482 23.2967C338.603 20.6338 337.163 17.4311 337.163 13.6887C337.163 9.94627 338.603 6.74362 341.482 4.08074C344.36 1.41786 347.815 0.0864258 351.845 0.0864258C355.912 0.0864258 359.366 1.41786 362.209 4.08074C365.088 6.74362 366.527 9.94627 366.527 13.6887C366.527 17.4311 365.088 20.6338 362.209 23.2967C359.366 25.9595 355.912 27.291 351.845 27.291Z" fill="white"/>
<path d="M284.711 120.348C275.715 120.348 268.014 118.567 261.609 115.004C255.203 111.406 250.292 106.404 246.873 99.9985C243.454 93.5572 241.745 86.0903 241.745 77.5979C241.745 69.1055 243.454 61.6566 246.873 55.2513C250.292 48.81 255.203 43.8081 261.609 40.2456C268.014 36.6471 275.715 34.8479 284.711 34.8479C292.844 34.8479 299.879 36.3233 305.816 39.274C311.79 42.1888 316.414 46.3271 319.688 51.6888C322.963 57.0146 324.618 63.2759 324.654 70.4729H297.018C296.622 66.1187 295.363 62.8081 293.239 60.5411C291.152 58.2381 288.453 57.0865 285.143 57.0865C282.552 57.0865 280.285 57.8422 278.342 59.3536C276.399 60.829 274.887 63.078 273.808 66.1007C272.728 69.0875 272.188 72.8479 272.188 77.382C272.188 81.9161 272.728 85.6945 273.808 88.7172C274.887 91.704 276.399 93.953 278.342 95.4644C280.285 96.9398 282.552 97.6774 285.143 97.6774C287.338 97.6774 289.281 97.1737 290.972 96.1661C292.664 95.1225 294.031 93.6112 295.075 91.632C296.154 89.6168 296.802 87.1699 297.018 84.2911H324.654C324.546 91.596 322.873 97.9653 319.634 103.399C316.396 108.797 311.808 112.971 305.87 115.922C299.969 118.873 292.916 120.348 284.711 120.348Z" fill="white"/>
<path d="M199.818 82.5636V35.9272H229.614V118.836H201.33V103.075H200.466C198.667 108.365 195.518 112.503 191.02 115.49C186.522 118.441 181.178 119.916 174.989 119.916C169.195 119.916 164.121 118.584 159.767 115.922C155.449 113.259 152.084 109.588 149.673 104.91C147.298 100.232 146.093 94.8704 146.057 88.825V35.9272H175.852V82.5636C175.888 86.6659 176.932 89.8865 178.983 92.2255C181.07 94.5646 183.985 95.7341 187.727 95.7341C190.21 95.7341 192.351 95.2123 194.151 94.1687C195.986 93.0892 197.389 91.5778 198.361 89.6346C199.368 87.6555 199.854 85.2985 199.818 82.5636Z" fill="white"/>
<path d="M96.0334 8.29102H125.829V91.8478C125.865 93.5391 126.351 94.8346 127.286 95.7342C128.258 96.5978 129.643 97.0297 131.443 97.0297C132.378 97.0297 133.134 96.9937 133.71 96.9217C134.285 96.8497 134.753 96.7418 135.113 96.5978L139.431 117.109C138.208 117.505 136.732 117.919 135.005 118.351C133.278 118.782 130.651 119.088 127.124 119.268C116.437 119.808 108.592 118.153 103.59 114.302C98.5884 110.416 96.0694 103.867 96.0334 94.6547V8.29102Z" fill="white"/>
<path d="M43.2842 120.348C34.4319 120.348 26.8031 118.657 20.3978 115.274C14.0285 111.855 9.11657 106.962 5.66202 100.592C2.24346 94.1869 0.53418 86.5221 0.53418 77.5979C0.53418 69.0335 2.26145 61.5487 5.716 55.1434C9.17054 48.738 14.0465 43.7542 20.3438 40.1917C26.6412 36.6292 34.0721 34.8479 42.6365 34.8479C48.8978 34.8479 54.5654 35.8195 59.6393 37.7627C64.7132 39.7058 69.0493 42.5307 72.6478 46.2371C76.2463 49.9076 79.0171 54.3697 80.9603 59.6235C82.9035 64.8773 83.8751 70.7968 83.8751 77.382V84.2911H9.81827V67.882H56.4546C56.4186 65.507 55.8069 63.4199 54.6194 61.6206C53.4679 59.7854 51.9026 58.364 49.9234 57.3564C47.9802 56.3129 45.7671 55.7911 43.2842 55.7911C40.8732 55.7911 38.6601 56.3129 36.645 57.3564C34.6298 58.364 33.0105 59.7674 31.787 61.5666C30.5995 63.3659 29.9698 65.471 29.8978 67.882V85.5865C29.8978 88.2494 30.4556 90.6244 31.5711 92.7115C32.6866 94.7987 34.288 96.436 36.3751 97.6235C38.4622 98.811 40.9811 99.4047 43.9319 99.4047C45.983 99.4047 47.8543 99.1168 49.5455 98.5411C51.2728 97.9653 52.7482 97.1377 53.9717 96.0581C55.1952 94.9426 56.0948 93.6112 56.6705 92.0638H83.8751C82.9395 97.8214 80.7264 102.823 77.2359 107.069C73.7454 111.28 69.1213 114.554 63.3637 116.893C57.6421 119.196 50.949 120.348 43.2842 120.348Z" fill="white"/>
</svg>
