<svg width="774" height="240" viewBox="0 0 774 240" fill="none" xmlns="http://www.w3.org/2000/svg">
<path fill-rule="evenodd" clip-rule="evenodd" d="M41.2672 234.437C46.2331 237.532 51.6668 239.079 57.5684 239.079C61.4547 239.079 64.9093 238.45 67.932 237.19C70.9907 235.895 73.5816 234.149 75.7047 231.954C77.8638 229.723 79.5191 227.204 80.6706 224.398H81.3184V238H110.898V155.091H81.1025V169.557H80.6706C79.5911 166.75 78.0078 164.177 75.9206 161.838C73.8335 159.463 71.2426 157.574 68.1479 156.17C65.0532 154.731 61.4547 154.011 57.3525 154.011C51.8828 154.011 46.665 155.469 41.699 158.383C36.7691 161.298 32.7388 165.886 29.6081 172.148C29.1062 173.163 28.6449 174.228 28.2243 175.342C35.2741 179.523 40.0001 187.209 40.0001 196C40.0001 204.903 35.1521 212.674 27.9519 216.817C28.3849 218.047 28.865 219.224 29.3922 220.349C32.379 226.647 36.3373 231.343 41.2672 234.437ZM75.5968 213.818C73.6536 215.401 71.3146 216.193 68.5797 216.193C65.8449 216.193 63.5059 215.419 61.5627 213.872C59.6555 212.289 58.1801 210.04 57.1365 207.125C56.129 204.174 55.6252 200.648 55.6252 196.545C55.6252 192.443 56.129 188.934 57.1365 186.02C58.1801 183.069 59.6555 180.82 61.5627 179.273C63.5059 177.689 65.8449 176.898 68.5797 176.898C71.3146 176.898 73.6536 177.689 75.5968 179.273C77.5759 180.82 79.0873 183.069 80.1309 186.02C81.2104 188.934 81.7502 192.443 81.7502 196.545C81.7502 200.576 81.2104 204.066 80.1309 207.017C79.0873 209.932 77.5759 212.199 75.5968 213.818ZM154.458 155.091H125.526V238H155.321V194.818C155.357 191.651 156.005 188.916 157.264 186.613C158.524 184.274 160.197 182.475 162.284 181.216C164.407 179.92 166.692 179.273 169.139 179.273C170.723 179.273 172.18 179.488 173.512 179.92C174.843 180.352 176.12 180.856 177.344 181.432L185.98 157.034C184.325 156.098 182.472 155.361 180.421 154.821C178.37 154.281 176.264 154.011 174.105 154.011C169.679 154.011 165.829 155.361 162.554 158.059C159.28 160.758 156.869 165.023 155.321 170.852H154.458V155.091ZM246.367 176.682V155.091H232.117V135.227H202.322V155.091H191.742V176.682H202.322V214.142C202.25 219.935 203.383 224.757 205.722 228.608C208.061 232.458 211.552 235.283 216.194 237.082C220.836 238.845 226.576 239.547 233.413 239.187C236.795 239.007 239.71 238.63 242.157 238.054C244.64 237.478 246.547 236.992 247.879 236.596L243.561 215.653C242.985 215.797 242.085 215.977 240.862 216.193C239.674 216.409 238.631 216.517 237.731 216.517C236.436 216.517 235.374 216.337 234.546 215.977C233.719 215.581 233.107 215.005 232.711 214.25C232.315 213.458 232.117 212.487 232.117 211.335V176.682H246.367Z" fill="#101010"/>
<path d="M32 196C32 204.837 24.8366 212 16 212C7.16344 212 0 204.837 0 196C0 187.163 7.16344 180 16 180C24.8366 180 32 187.163 32 196Z" fill="#A401DA"/>
<path d="M730.766 120.511C721.769 120.511 714.069 118.73 707.663 115.168C701.258 111.569 696.346 106.567 692.928 100.162C689.509 93.7207 687.8 86.2539 687.8 77.7615C687.8 69.2691 689.509 61.8202 692.928 55.4149C696.346 48.9736 701.258 43.9717 707.663 40.4092C714.069 36.8107 721.769 35.0115 730.766 35.0115C739.762 35.0115 747.463 36.8107 753.868 40.4092C760.273 43.9717 765.185 48.9736 768.604 55.4149C772.022 61.8202 773.732 69.2691 773.732 77.7615C773.732 86.2539 772.022 93.7207 768.604 100.162C765.185 106.567 760.273 111.569 753.868 115.168C747.463 118.73 739.762 120.511 730.766 120.511ZM730.982 98.4887C733.501 98.4887 735.678 97.6431 737.513 95.9518C739.348 94.2605 740.769 91.8495 741.777 88.7189C742.785 85.5882 743.288 81.8637 743.288 77.5456C743.288 73.1914 742.785 69.467 741.777 66.3723C740.769 63.2416 739.348 60.8306 737.513 59.1393C735.678 57.448 733.501 56.6024 730.982 56.6024C728.319 56.6024 726.034 57.448 724.126 59.1393C722.219 60.8306 720.762 63.2416 719.754 66.3723C718.747 69.467 718.243 73.1914 718.243 77.5456C718.243 81.8637 718.747 85.5882 719.754 88.7189C720.762 91.8495 722.219 94.2605 724.126 95.9518C726.034 97.6431 728.319 98.4887 730.982 98.4887Z" fill="#101010"/>
<path d="M645.846 119V36.0909H675.641V119H645.846ZM660.744 27.4545C656.713 27.4545 653.259 26.1231 650.38 23.4602C647.501 20.7973 646.062 17.5947 646.062 13.8523C646.062 10.1098 647.501 6.90719 650.38 4.24431C653.259 1.58144 656.713 0.25 660.744 0.25C664.81 0.25 668.264 1.58144 671.107 4.24431C673.986 6.90719 675.425 10.1098 675.425 13.8523C675.425 17.5947 673.986 20.7973 671.107 23.4602C668.264 26.1231 664.81 27.4545 660.744 27.4545Z" fill="#101010"/>
<path d="M577.862 119V36.091H606.793V51.8524H607.657C609.204 46.0228 611.615 41.7586 614.89 39.0598C618.165 36.3609 622.015 35.0115 626.441 35.0115C628.6 35.0115 630.705 35.2814 632.756 35.8211C634.808 36.3609 636.661 37.0986 638.316 38.0342L629.68 62.4319C628.456 61.8562 627.179 61.3524 625.847 60.9206C624.516 60.4887 623.059 60.2728 621.475 60.2728C619.028 60.2728 616.743 60.9206 614.62 62.216C612.533 63.4755 610.86 65.2747 609.6 67.6137C608.341 69.9168 607.693 72.6516 607.657 75.8183V119H577.862Z" fill="#101010"/>
<path d="M509.904 120.08C504.003 120.08 498.569 118.532 493.603 115.438C488.673 112.343 484.715 107.647 481.728 101.35C478.777 95.0522 477.302 87.1175 477.302 77.5456C477.302 67.5418 478.849 59.4092 481.944 53.1478C485.075 46.8865 489.105 42.2984 494.035 39.3836C499.001 36.4689 504.219 35.0115 509.688 35.0115C513.791 35.0115 517.389 35.7312 520.484 37.1706C523.578 38.574 526.169 40.4632 528.257 42.8382C530.344 45.1772 531.927 47.7501 533.007 50.5569H533.438V36.091H563.234V119H533.654V105.398H533.007C531.855 108.205 530.2 110.724 528.041 112.955C525.918 115.15 523.327 116.895 520.268 118.19C517.245 119.45 513.791 120.08 509.904 120.08ZM520.916 97.1933C523.65 97.1933 525.99 96.4016 527.933 94.8183C529.912 93.199 531.423 90.9319 532.467 88.0172C533.546 85.0664 534.086 81.5759 534.086 77.5456C534.086 73.4433 533.546 69.9348 532.467 67.02C531.423 64.0692 529.912 61.8202 527.933 60.2728C525.99 58.6895 523.65 57.8978 520.916 57.8978C518.181 57.8978 515.842 58.6895 513.899 60.2728C511.991 61.8202 510.516 64.0692 509.472 67.02C508.465 69.9348 507.961 73.4433 507.961 77.5456C507.961 81.6478 508.465 85.1744 509.472 88.1251C510.516 91.0399 511.991 93.2889 513.899 94.8723C515.842 96.4196 518.181 97.1933 520.916 97.1933Z" fill="#101010"/>
<path d="M411.936 120.08C406.034 120.08 400.6 118.532 395.634 115.438C390.704 112.343 386.746 107.647 383.759 101.349C380.809 95.0521 379.333 87.1175 379.333 77.5455C379.333 67.5417 380.881 59.4091 383.975 53.1478C387.106 46.8864 391.136 42.2983 396.066 39.3836C401.032 36.4688 406.25 35.0114 411.72 35.0114C415.822 35.0114 419.42 35.7311 422.515 37.1705C425.61 38.5739 428.201 40.4631 430.288 42.8381C432.375 45.1771 433.958 47.75 435.038 50.5569H435.47V8.45459H465.265V119H435.686V105.398H435.038C433.886 108.205 432.231 110.724 430.072 112.955C427.949 115.15 425.358 116.895 422.299 118.19C419.276 119.45 415.822 120.08 411.936 120.08ZM422.947 97.1932C425.682 97.1932 428.021 96.4016 429.964 94.8182C431.943 93.1989 433.454 90.9319 434.498 88.0171C435.578 85.0663 436.117 81.5758 436.117 77.5455C436.117 73.4432 435.578 69.9347 434.498 67.0199C433.454 64.0692 431.943 61.8201 429.964 60.2728C428.021 58.6894 425.682 57.8978 422.947 57.8978C420.212 57.8978 417.873 58.6894 415.93 60.2728C414.023 61.8201 412.547 64.0692 411.504 67.0199C410.496 69.9347 409.992 73.4432 409.992 77.5455C409.992 81.6478 410.496 85.1743 411.504 88.125C412.547 91.0398 414.023 93.2889 415.93 94.8722C417.873 96.4196 420.212 97.1932 422.947 97.1932Z" fill="#101010"/>
<path d="M336.948 119V36.0909H366.743V119H336.948ZM351.845 27.4545C347.815 27.4545 344.36 26.1231 341.482 23.4602C338.603 20.7973 337.163 17.5947 337.163 13.8523C337.163 10.1098 338.603 6.90719 341.482 4.24431C344.36 1.58144 347.815 0.25 351.845 0.25C355.912 0.25 359.366 1.58144 362.209 4.24431C365.088 6.90719 366.527 10.1098 366.527 13.8523C366.527 17.5947 365.088 20.7973 362.209 23.4602C359.366 26.1231 355.912 27.4545 351.845 27.4545Z" fill="#101010"/>
<path d="M284.711 120.511C275.715 120.511 268.014 118.73 261.609 115.168C255.203 111.569 250.292 106.567 246.873 100.162C243.454 93.7207 241.745 86.2539 241.745 77.7615C241.745 69.2691 243.454 61.8202 246.873 55.4149C250.292 48.9736 255.203 43.9717 261.609 40.4092C268.014 36.8107 275.715 35.0115 284.711 35.0115C292.844 35.0115 299.879 36.4869 305.816 39.4376C311.79 42.3524 316.414 46.4906 319.688 51.8524C322.963 57.1781 324.618 63.4395 324.654 70.6365H297.018C296.622 66.2823 295.363 62.9717 293.239 60.7047C291.152 58.4016 288.453 57.2501 285.143 57.2501C282.552 57.2501 280.285 58.0058 278.342 59.5172C276.399 60.9925 274.887 63.2416 273.808 66.2643C272.728 69.2511 272.188 73.0115 272.188 77.5456C272.188 82.0797 272.728 85.8581 273.808 88.8808C274.887 91.8675 276.399 94.1166 278.342 95.6279C280.285 97.1033 282.552 97.841 285.143 97.841C287.338 97.841 289.281 97.3372 290.972 96.3297C292.664 95.2861 294.031 93.7747 295.075 91.7956C296.154 89.7804 296.802 87.3334 297.018 84.4547H324.654C324.546 91.7596 322.873 98.1289 319.634 103.563C316.396 108.96 311.808 113.135 305.87 116.085C299.969 119.036 292.916 120.511 284.711 120.511Z" fill="#101010"/>
<path d="M199.818 82.7272V36.0908H229.614V119H201.33V103.239H200.466C198.667 108.528 195.518 112.667 191.02 115.653C186.522 118.604 181.178 120.079 174.989 120.079C169.195 120.079 164.121 118.748 159.767 116.085C155.449 113.422 152.084 109.752 149.673 105.074C147.298 100.396 146.093 95.034 146.057 88.9885V36.0908H175.852V82.7272C175.888 86.8295 176.932 90.0501 178.983 92.3891C181.07 94.7281 183.985 95.8976 187.727 95.8976C190.21 95.8976 192.351 95.3759 194.151 94.3323C195.986 93.2528 197.389 91.7414 198.361 89.7982C199.368 87.819 199.854 85.462 199.818 82.7272Z" fill="#101010"/>
<path d="M96.0334 8.45459H125.829V92.0114C125.865 93.7027 126.351 94.9982 127.286 95.8978C128.258 96.7614 129.643 97.1932 131.443 97.1932C132.378 97.1932 133.134 97.1572 133.71 97.0853C134.285 97.0133 134.753 96.9053 135.113 96.7614L139.431 117.273C138.208 117.669 136.732 118.082 135.005 118.514C133.278 118.946 130.651 119.252 127.124 119.432C116.437 119.972 108.592 118.316 103.59 114.466C98.5884 110.58 96.0694 104.03 96.0334 94.8182V8.45459Z" fill="#101010"/>
<path d="M43.2842 120.511C34.4319 120.511 26.8031 118.82 20.3978 115.438C14.0285 112.019 9.11657 107.125 5.66202 100.756C2.24346 94.3505 0.53418 86.6857 0.53418 77.7615C0.53418 69.1971 2.26145 61.7122 5.716 55.3069C9.17054 48.9016 14.0465 43.9177 20.3438 40.3552C26.6412 36.7927 34.0721 35.0115 42.6365 35.0115C48.8978 35.0115 54.5654 35.9831 59.6393 37.9262C64.7132 39.8694 69.0493 42.6942 72.6478 46.4007C76.2463 50.0711 79.0171 54.5333 80.9603 59.787C82.9035 65.0408 83.8751 70.9603 83.8751 77.5456V84.4547H9.81827V68.0456H56.4546C56.4186 65.6706 55.8069 63.5834 54.6194 61.7842C53.4679 59.949 51.9026 58.5276 49.9234 57.52C47.9802 56.4764 45.7671 55.9547 43.2842 55.9547C40.8732 55.9547 38.6601 56.4764 36.645 57.52C34.6298 58.5276 33.0105 59.931 31.787 61.7302C30.5995 63.5295 29.9698 65.6346 29.8978 68.0456V85.7501C29.8978 88.413 30.4556 90.788 31.5711 92.8751C32.6866 94.9622 34.288 96.5995 36.3751 97.787C38.4622 98.9745 40.9811 99.5683 43.9319 99.5683C45.983 99.5683 47.8543 99.2804 49.5455 98.7047C51.2728 98.1289 52.7482 97.3012 53.9717 96.2217C55.1952 95.1062 56.0948 93.7747 56.6705 92.2274H83.8751C82.9395 97.985 80.7264 102.987 77.2359 107.233C73.7454 111.443 69.1213 114.718 63.3637 117.057C57.6421 119.36 50.949 120.511 43.2842 120.511Z" fill="#101010"/>
</svg>
