<svg width="774" height="240" viewBox="0 0 774 240" fill="none" xmlns="http://www.w3.org/2000/svg">
<path fill-rule="evenodd" clip-rule="evenodd" d="M41.2672 234.716C46.2331 237.811 51.6668 239.358 57.5684 239.358C61.4547 239.358 64.9093 238.728 67.932 237.469C70.9907 236.173 73.5816 234.428 75.7047 232.233C77.8638 230.002 79.5191 227.483 80.6706 224.676H81.3184V238.279H110.898V155.369H81.1025V169.835H80.6706C79.5911 167.029 78.0078 164.456 75.9206 162.117C73.8335 159.742 71.2426 157.852 68.1479 156.449C65.0532 155.01 61.4547 154.29 57.3525 154.29C51.8828 154.29 46.665 155.747 41.699 158.662C36.7691 161.577 32.7388 166.165 29.6081 172.426C29.1062 173.442 28.6449 174.507 28.2243 175.621C35.2741 179.802 40.0001 187.488 40.0001 196.279C40.0001 205.182 35.1521 212.953 27.9519 217.096C28.3849 218.325 28.865 219.503 29.3922 220.628C32.379 226.925 36.3373 231.621 41.2672 234.716ZM75.5968 214.097C73.6536 215.68 71.3146 216.472 68.5797 216.472C65.8449 216.472 63.5059 215.698 61.5627 214.151C59.6555 212.567 58.1801 210.318 57.1365 207.404C56.129 204.453 55.6252 200.926 55.6252 196.824C55.6252 192.722 56.129 189.213 57.1365 186.298C58.1801 183.348 59.6555 181.099 61.5627 179.551C63.5059 177.968 65.8449 177.176 68.5797 177.176C71.3146 177.176 73.6536 177.968 75.5968 179.551C77.5759 181.099 79.0873 183.348 80.1309 186.298C81.2104 189.213 81.7502 192.722 81.7502 196.824C81.7502 200.854 81.2104 204.345 80.1309 207.296C79.0873 210.21 77.5759 212.477 75.5968 214.097ZM154.458 155.369H125.526V238.279H155.321V195.097C155.357 191.93 156.005 189.195 157.264 186.892C158.524 184.553 160.197 182.754 162.284 181.494C164.407 180.199 166.692 179.551 169.139 179.551C170.723 179.551 172.18 179.767 173.512 180.199C174.843 180.631 176.12 181.135 177.344 181.71L185.98 157.313C184.325 156.377 182.472 155.639 180.421 155.1C178.37 154.56 176.264 154.29 174.105 154.29C169.679 154.29 165.829 155.639 162.554 158.338C159.28 161.037 156.869 165.301 155.321 171.131H154.458V155.369ZM246.367 176.96V155.369H232.117V135.506H202.322V155.369H191.742V176.96H202.322V214.421C202.25 220.214 203.383 225.036 205.722 228.887C208.061 232.737 211.552 235.562 216.194 237.361C220.836 239.124 226.576 239.826 233.413 239.466C236.795 239.286 239.71 238.908 242.157 238.333C244.64 237.757 246.547 237.271 247.879 236.875L243.561 215.932C242.985 216.076 242.085 216.256 240.862 216.472C239.674 216.688 238.631 216.796 237.731 216.796C236.436 216.796 235.374 216.616 234.546 216.256C233.719 215.86 233.107 215.284 232.711 214.529C232.315 213.737 232.117 212.765 232.117 211.614V176.96H246.367Z" fill="#101010"/>
<path d="M32 196.279C32 205.115 24.8366 212.279 16 212.279C7.16344 212.279 0 205.115 0 196.279C0 187.442 7.16344 180.279 16 180.279C24.8366 180.279 32 187.442 32 196.279Z" fill="#0375C9"/>
<path d="M730.766 120.79C721.769 120.79 714.069 119.009 707.663 115.447C701.258 111.848 696.346 106.846 692.928 100.441C689.509 93.9996 687.8 86.5327 687.8 78.0403C687.8 69.5479 689.509 62.099 692.928 55.6937C696.346 49.2524 701.258 44.2505 707.663 40.688C714.069 37.0895 721.769 35.2903 730.766 35.2903C739.762 35.2903 747.463 37.0895 753.868 40.688C760.273 44.2505 765.185 49.2524 768.604 55.6937C772.022 62.099 773.732 69.5479 773.732 78.0403C773.732 86.5327 772.022 93.9996 768.604 100.441C765.185 106.846 760.273 111.848 753.868 115.447C747.463 119.009 739.762 120.79 730.766 120.79ZM730.982 98.7676C733.501 98.7676 735.678 97.9219 737.513 96.2306C739.348 94.5393 740.769 92.1283 741.777 88.9977C742.785 85.867 743.288 82.1426 743.288 77.8244C743.288 73.4702 742.785 69.7458 741.777 66.6511C740.769 63.5204 739.348 61.1094 737.513 59.4181C735.678 57.7268 733.501 56.8812 730.982 56.8812C728.319 56.8812 726.034 57.7268 724.126 59.4181C722.219 61.1094 720.762 63.5204 719.754 66.6511C718.747 69.7458 718.243 73.4702 718.243 77.8244C718.243 82.1426 718.747 85.867 719.754 88.9977C720.762 92.1283 722.219 94.5393 724.126 96.2306C726.034 97.9219 728.319 98.7676 730.982 98.7676Z" fill="#101010"/>
<path d="M645.846 119.279V36.3697H675.641V119.279H645.846ZM660.744 27.7334C656.713 27.7334 653.259 26.4019 650.38 23.739C647.501 21.0762 646.062 17.8735 646.062 14.1311C646.062 10.3887 647.501 7.186 650.38 4.52312C653.259 1.86025 656.713 0.528809 660.744 0.528809C664.81 0.528809 668.264 1.86025 671.107 4.52312C673.986 7.186 675.425 10.3887 675.425 14.1311C675.425 17.8735 673.986 21.0762 671.107 23.739C668.264 26.4019 664.81 27.7334 660.744 27.7334Z" fill="#101010"/>
<path d="M577.862 119.279V36.3698H606.793V52.1312H607.657C609.204 46.3016 611.615 42.0374 614.89 39.3386C618.165 36.6397 622.015 35.2903 626.441 35.2903C628.6 35.2903 630.705 35.5602 632.756 36.0999C634.808 36.6397 636.661 37.3774 638.316 38.313L629.68 62.7107C628.456 62.135 627.179 61.6312 625.847 61.1994C624.516 60.7676 623.059 60.5516 621.475 60.5516C619.028 60.5516 616.743 61.1994 614.62 62.4948C612.533 63.7543 610.86 65.5535 609.6 67.8926C608.341 70.1956 607.693 72.9304 607.657 76.0971V119.279H577.862Z" fill="#101010"/>
<path d="M509.904 120.358C504.003 120.358 498.569 118.811 493.603 115.716C488.673 112.622 484.715 107.926 481.728 101.628C478.777 95.331 477.302 87.3963 477.302 77.8244C477.302 67.8206 478.849 59.688 481.944 53.4266C485.075 47.1653 489.105 42.5772 494.035 39.6624C499.001 36.7477 504.219 35.2903 509.688 35.2903C513.791 35.2903 517.389 36.01 520.484 37.4494C523.578 38.8528 526.169 40.742 528.257 43.117C530.344 45.456 531.927 48.0289 533.007 50.8357H533.438V36.3698H563.234V119.279H533.654V105.677H533.007C531.855 108.483 530.2 111.002 528.041 113.233C525.918 115.429 523.327 117.174 520.268 118.469C517.245 119.729 513.791 120.358 509.904 120.358ZM520.916 97.4721C523.65 97.4721 525.99 96.6804 527.933 95.0971C529.912 93.4778 531.423 91.2107 532.467 88.296C533.546 85.3452 534.086 81.8547 534.086 77.8244C534.086 73.7221 533.546 70.2136 532.467 67.2988C531.423 64.348 529.912 62.099 527.933 60.5516C525.99 58.9683 523.65 58.1766 520.916 58.1766C518.181 58.1766 515.842 58.9683 513.899 60.5516C511.991 62.099 510.516 64.348 509.472 67.2988C508.465 70.2136 507.961 73.7221 507.961 77.8244C507.961 81.9266 508.465 85.4532 509.472 88.4039C510.516 91.3187 511.991 93.5677 513.899 95.1511C515.842 96.6984 518.181 97.4721 520.916 97.4721Z" fill="#101010"/>
<path d="M411.936 120.358C406.034 120.358 400.6 118.811 395.634 115.716C390.704 112.622 386.746 107.926 383.759 101.628C380.809 95.3309 379.333 87.3963 379.333 77.8243C379.333 67.8205 380.881 59.6879 383.975 53.4266C387.106 47.1652 391.136 42.5771 396.066 39.6624C401.032 36.7476 406.25 35.2902 411.72 35.2902C415.822 35.2902 419.42 36.0099 422.515 37.4493C425.61 38.8527 428.201 40.7419 430.288 43.1169C432.375 45.4559 433.958 48.0289 435.038 50.8357H435.47V8.7334H465.265V119.279H435.686V105.677H435.038C433.886 108.483 432.231 111.002 430.072 113.233C427.949 115.428 425.358 117.174 422.299 118.469C419.276 119.729 415.822 120.358 411.936 120.358ZM422.947 97.472C425.682 97.472 428.021 96.6804 429.964 95.097C431.943 93.4777 433.454 91.2107 434.498 88.2959C435.578 85.3451 436.117 81.8546 436.117 77.8243C436.117 73.722 435.578 70.2135 434.498 67.2987C433.454 64.348 431.943 62.0989 429.964 60.5516C428.021 58.9683 425.682 58.1766 422.947 58.1766C420.212 58.1766 417.873 58.9683 415.93 60.5516C414.023 62.0989 412.547 64.348 411.504 67.2987C410.496 70.2135 409.992 73.722 409.992 77.8243C409.992 81.9266 410.496 85.4531 411.504 88.4039C412.547 91.3186 414.023 93.5677 415.93 95.151C417.873 96.6984 420.212 97.472 422.947 97.472Z" fill="#101010"/>
<path d="M336.948 119.279V36.3697H366.743V119.279H336.948ZM351.845 27.7334C347.815 27.7334 344.36 26.4019 341.482 23.739C338.603 21.0762 337.163 17.8735 337.163 14.1311C337.163 10.3887 338.603 7.186 341.482 4.52312C344.36 1.86025 347.815 0.528809 351.845 0.528809C355.912 0.528809 359.366 1.86025 362.209 4.52312C365.088 7.186 366.527 10.3887 366.527 14.1311C366.527 17.8735 365.088 21.0762 362.209 23.739C359.366 26.4019 355.912 27.7334 351.845 27.7334Z" fill="#101010"/>
<path d="M284.711 120.79C275.715 120.79 268.014 119.009 261.609 115.447C255.203 111.848 250.292 106.846 246.873 100.441C243.454 93.9996 241.745 86.5327 241.745 78.0403C241.745 69.5479 243.454 62.099 246.873 55.6937C250.292 49.2524 255.203 44.2505 261.609 40.688C268.014 37.0895 275.715 35.2903 284.711 35.2903C292.844 35.2903 299.879 36.7657 305.816 39.7164C311.79 42.6312 316.414 46.7694 319.688 52.1312C322.963 57.4569 324.618 63.7183 324.654 70.9153H297.018C296.622 66.5611 295.363 63.2505 293.239 60.9835C291.152 58.6804 288.453 57.5289 285.143 57.5289C282.552 57.5289 280.285 58.2846 278.342 59.796C276.399 61.2713 274.887 63.5204 273.808 66.5431C272.728 69.5299 272.188 73.2903 272.188 77.8244C272.188 82.3585 272.728 86.1369 273.808 89.1596C274.887 92.1463 276.399 94.3954 278.342 95.9068C280.285 97.3821 282.552 98.1198 285.143 98.1198C287.338 98.1198 289.281 97.616 290.972 96.6085C292.664 95.5649 294.031 94.0535 295.075 92.0744C296.154 90.0592 296.802 87.6123 297.018 84.7335H324.654C324.546 92.0384 322.873 98.4077 319.634 103.841C316.396 109.239 311.808 113.413 305.87 116.364C299.969 119.315 292.916 120.79 284.711 120.79Z" fill="#101010"/>
<path d="M199.818 83.006V36.3696H229.614V119.279H201.33V103.517H200.466C198.667 108.807 195.518 112.945 191.02 115.932C186.522 118.883 181.178 120.358 174.989 120.358C169.195 120.358 164.121 119.027 159.767 116.364C155.449 113.701 152.084 110.031 149.673 105.353C147.298 100.675 146.093 95.3128 146.057 89.2674V36.3696H175.852V83.006C175.888 87.1083 176.932 90.3289 178.983 92.6679C181.07 95.0069 183.985 96.1765 187.727 96.1765C190.21 96.1765 192.351 95.6547 194.151 94.6111C195.986 93.5316 197.389 92.0202 198.361 90.077C199.368 88.0979 199.854 85.7408 199.818 83.006Z" fill="#101010"/>
<path d="M96.0334 8.7334H125.829V92.2902C125.865 93.9815 126.351 95.277 127.286 96.1766C128.258 97.0402 129.643 97.472 131.443 97.472C132.378 97.472 133.134 97.4361 133.71 97.3641C134.285 97.2921 134.753 97.1842 135.113 97.0402L139.431 117.552C138.208 117.947 136.732 118.361 135.005 118.793C133.278 119.225 130.651 119.531 127.124 119.711C116.437 120.25 108.592 118.595 103.59 114.745C98.5884 110.858 96.0694 104.309 96.0334 95.097V8.7334Z" fill="#101010"/>
<path d="M43.2842 120.79C34.4319 120.79 26.8031 119.099 20.3978 115.716C14.0285 112.298 9.11657 107.404 5.66202 101.035C2.24346 94.6293 0.53418 86.9645 0.53418 78.0403C0.53418 69.4759 2.26145 61.991 5.716 55.5857C9.17054 49.1804 14.0465 44.1965 20.3438 40.634C26.6412 37.0715 34.0721 35.2903 42.6365 35.2903C48.8978 35.2903 54.5654 36.2619 59.6393 38.2051C64.7132 40.1482 69.0493 42.973 72.6478 46.6795C76.2463 50.3499 79.0171 54.8121 80.9603 60.0659C82.9035 65.3196 83.8751 71.2391 83.8751 77.8244V84.7335H9.81827V68.3244H56.4546C56.4186 65.9494 55.8069 63.8623 54.6194 62.063C53.4679 60.2278 51.9026 58.8064 49.9234 57.7988C47.9802 56.7552 45.7671 56.2335 43.2842 56.2335C40.8732 56.2335 38.6601 56.7552 36.645 57.7988C34.6298 58.8064 33.0105 60.2098 31.787 62.009C30.5995 63.8083 29.9698 65.9134 29.8978 68.3244V86.0289C29.8978 88.6918 30.4556 91.0668 31.5711 93.1539C32.6866 95.241 34.288 96.8784 36.3751 98.0659C38.4622 99.2534 40.9811 99.8471 43.9319 99.8471C45.983 99.8471 47.8543 99.5592 49.5455 98.9835C51.2728 98.4077 52.7482 97.5801 53.9717 96.5005C55.1952 95.385 56.0948 94.0535 56.6705 92.5062H83.8751C82.9395 98.2638 80.7264 103.266 77.2359 107.512C73.7454 111.722 69.1213 114.997 63.3637 117.336C57.6421 119.639 50.949 120.79 43.2842 120.79Z" fill="#101010"/>
</svg>
