<svg width="774" height="240" viewBox="0 0 774 240" fill="none" xmlns="http://www.w3.org/2000/svg">
<path fill-rule="evenodd" clip-rule="evenodd" d="M41.2672 234.995C46.2331 238.09 51.6668 239.637 57.5684 239.637C61.4547 239.637 64.9093 239.007 67.932 237.748C70.9907 236.452 73.5816 234.707 75.7047 232.512C77.8638 230.281 79.5191 227.762 80.6706 224.955H81.3184V238.557H110.898V155.648H81.1025V170.114H80.6706C79.5911 167.307 78.0078 164.734 75.9206 162.395C73.8335 160.02 71.2426 158.131 68.1479 156.728C65.0532 155.288 61.4547 154.569 57.3525 154.569C51.8828 154.569 46.665 156.026 41.699 158.941C36.7691 161.856 32.7388 166.444 29.6081 172.705C29.1062 173.721 28.6449 174.786 28.2243 175.9C35.2741 180.08 40.0001 187.767 40.0001 196.558C40.0001 205.461 35.1521 213.232 27.9519 217.375C28.3849 218.604 28.865 219.782 29.3922 220.907C32.379 227.204 36.3373 231.9 41.2672 234.995ZM75.5968 214.376C73.6536 215.959 71.3146 216.751 68.5797 216.751C65.8449 216.751 63.5059 215.977 61.5627 214.43C59.6555 212.846 58.1801 210.597 57.1365 207.682C56.129 204.732 55.6252 201.205 55.6252 197.103C55.6252 193.001 56.129 189.492 57.1365 186.577C58.1801 183.627 59.6555 181.377 61.5627 179.83C63.5059 178.247 65.8449 177.455 68.5797 177.455C71.3146 177.455 73.6536 178.247 75.5968 179.83C77.5759 181.377 79.0873 183.627 80.1309 186.577C81.2104 189.492 81.7502 193.001 81.7502 197.103C81.7502 201.133 81.2104 204.624 80.1309 207.574C79.0873 210.489 77.5759 212.756 75.5968 214.376ZM154.458 155.648H125.526V238.557H155.321V195.376C155.357 192.209 156.005 189.474 157.264 187.171C158.524 184.832 160.197 183.033 162.284 181.773C164.407 180.478 166.692 179.83 169.139 179.83C170.723 179.83 172.18 180.046 173.512 180.478C174.843 180.91 176.12 181.413 177.344 181.989L185.98 157.591C184.325 156.656 182.472 155.918 180.421 155.378C178.37 154.839 176.264 154.569 174.105 154.569C169.679 154.569 165.829 155.918 162.554 158.617C159.28 161.316 156.869 165.58 155.321 171.41H154.458V155.648ZM246.367 177.239V155.648H232.117V135.785H202.322V155.648H191.742V177.239H202.322V214.699C202.25 220.493 203.383 225.315 205.722 229.165C208.061 233.016 211.552 235.841 216.194 237.64C220.836 239.403 226.576 240.105 233.413 239.745C236.795 239.565 239.71 239.187 242.157 238.611C244.64 238.036 246.547 237.55 247.879 237.154L243.561 216.211C242.985 216.355 242.085 216.535 240.862 216.751C239.674 216.966 238.631 217.074 237.731 217.074C236.436 217.074 235.374 216.895 234.546 216.535C233.719 216.139 233.107 215.563 232.711 214.807C232.315 214.016 232.117 213.044 232.117 211.893V177.239H246.367Z" fill="white"/>
<path d="M32 196.558C32 205.394 24.8366 212.558 16 212.558C7.16344 212.558 0 205.394 0 196.558C0 187.721 7.16344 180.558 16 180.558C24.8366 180.558 32 187.721 32 196.558Z" fill="#D555FC"/>
<path d="M730.766 121.069C721.769 121.069 714.069 119.288 707.663 115.725C701.258 112.127 696.346 107.125 692.928 100.72C689.509 94.2784 687.8 86.8115 687.8 78.3191C687.8 69.8267 689.509 62.3778 692.928 55.9725C696.346 49.5312 701.258 44.5293 707.663 40.9668C714.069 37.3683 721.769 35.5691 730.766 35.5691C739.762 35.5691 747.463 37.3683 753.868 40.9668C760.273 44.5293 765.185 49.5312 768.604 55.9725C772.022 62.3778 773.732 69.8267 773.732 78.3191C773.732 86.8115 772.022 94.2784 768.604 100.72C765.185 107.125 760.273 112.127 753.868 115.725C747.463 119.288 739.762 121.069 730.766 121.069ZM730.982 99.0464C733.501 99.0464 735.678 98.2007 737.513 96.5094C739.348 94.8181 740.769 92.4072 741.777 89.2765C742.785 86.1458 743.288 82.4214 743.288 78.1032C743.288 73.749 742.785 70.0246 741.777 66.9299C740.769 63.7992 739.348 61.3882 737.513 59.6969C735.678 58.0056 733.501 57.16 730.982 57.16C728.319 57.16 726.034 58.0056 724.126 59.6969C722.219 61.3882 720.762 63.7992 719.754 66.9299C718.747 70.0246 718.243 73.749 718.243 78.1032C718.243 82.4214 718.747 86.1458 719.754 89.2765C720.762 92.4072 722.219 94.8181 724.126 96.5094C726.034 98.2007 728.319 99.0464 730.982 99.0464Z" fill="white"/>
<path d="M645.846 119.558V36.6485H675.641V119.558H645.846ZM660.744 28.0122C656.713 28.0122 653.259 26.6807 650.38 24.0178C647.501 21.355 646.062 18.1523 646.062 14.4099C646.062 10.6675 647.501 7.46481 650.38 4.80193C653.259 2.13905 656.713 0.807617 660.744 0.807617C664.81 0.807617 668.264 2.13905 671.107 4.80193C673.986 7.46481 675.425 10.6675 675.425 14.4099C675.425 18.1523 673.986 21.355 671.107 24.0178C668.264 26.6807 664.81 28.0122 660.744 28.0122Z" fill="white"/>
<path d="M577.862 119.558V36.6486H606.793V52.41H607.657C609.204 46.5805 611.615 42.3162 614.89 39.6174C618.165 36.9185 622.015 35.5691 626.441 35.5691C628.6 35.5691 630.705 35.839 632.756 36.3787C634.808 36.9185 636.661 37.6562 638.316 38.5918L629.68 62.9895C628.456 62.4138 627.179 61.91 625.847 61.4782C624.516 61.0464 623.059 60.8305 621.475 60.8305C619.028 60.8305 616.743 61.4782 614.62 62.7736C612.533 64.0331 610.86 65.8323 609.6 68.1714C608.341 70.4744 607.693 73.2092 607.657 76.3759V119.558H577.862Z" fill="white"/>
<path d="M509.904 120.637C504.003 120.637 498.569 119.09 493.603 115.995C488.673 112.901 484.715 108.204 481.728 101.907C478.777 95.6098 477.302 87.6752 477.302 78.1032C477.302 68.0994 478.849 59.9668 481.944 53.7055C485.075 47.4441 489.105 42.856 494.035 39.9412C499.001 37.0265 504.219 35.5691 509.688 35.5691C513.791 35.5691 517.389 36.2888 520.484 37.7282C523.578 39.1316 526.169 41.0208 528.257 43.3958C530.344 45.7348 531.927 48.3077 533.007 51.1145H533.438V36.6486H563.234V119.558H533.654V105.955H533.007C531.855 108.762 530.2 111.281 528.041 113.512C525.918 115.707 523.327 117.453 520.268 118.748C517.245 120.008 513.791 120.637 509.904 120.637ZM520.916 97.7509C523.65 97.7509 525.99 96.9592 527.933 95.3759C529.912 93.7566 531.423 91.4895 532.467 88.5748C533.546 85.624 534.086 82.1335 534.086 78.1032C534.086 74.0009 533.546 70.4924 532.467 67.5776C531.423 64.6269 529.912 62.3778 527.933 60.8305C525.99 59.2471 523.65 58.4555 520.916 58.4555C518.181 58.4555 515.842 59.2471 513.899 60.8305C511.991 62.3778 510.516 64.6269 509.472 67.5776C508.465 70.4924 507.961 74.0009 507.961 78.1032C507.961 82.2055 508.465 85.732 509.472 88.6827C510.516 91.5975 511.991 93.8466 513.899 95.4299C515.842 96.9772 518.181 97.7509 520.916 97.7509Z" fill="white"/>
<path d="M411.936 120.637C406.034 120.637 400.6 119.09 395.634 115.995C390.704 112.9 386.746 108.204 383.759 101.907C380.809 95.6097 379.333 87.6751 379.333 78.1031C379.333 68.0993 380.881 59.9668 383.975 53.7054C387.106 47.444 391.136 42.856 396.066 39.9412C401.032 37.0264 406.25 35.569 411.72 35.569C415.822 35.569 419.42 36.2887 422.515 37.7281C425.61 39.1315 428.201 41.0207 430.288 43.3957C432.375 45.7347 433.958 48.3077 435.038 51.1145H435.47V9.01221H465.265V119.558H435.686V105.955H435.038C433.886 108.762 432.231 111.281 430.072 113.512C427.949 115.707 425.358 117.453 422.299 118.748C419.276 120.007 415.822 120.637 411.936 120.637ZM422.947 97.7508C425.682 97.7508 428.021 96.9592 429.964 95.3758C431.943 93.7565 433.454 91.4895 434.498 88.5747C435.578 85.6239 436.117 82.1334 436.117 78.1031C436.117 74.0008 435.578 70.4923 434.498 67.5775C433.454 64.6268 431.943 62.3777 429.964 60.8304C428.021 59.2471 425.682 58.4554 422.947 58.4554C420.212 58.4554 417.873 59.2471 415.93 60.8304C414.023 62.3777 412.547 64.6268 411.504 67.5775C410.496 70.4923 409.992 74.0008 409.992 78.1031C409.992 82.2054 410.496 85.7319 411.504 88.6827C412.547 91.5974 414.023 93.8465 415.93 95.4298C417.873 96.9772 420.212 97.7508 422.947 97.7508Z" fill="white"/>
<path d="M336.948 119.558V36.6485H366.743V119.558H336.948ZM351.845 28.0122C347.815 28.0122 344.36 26.6807 341.482 24.0178C338.603 21.355 337.163 18.1523 337.163 14.4099C337.163 10.6675 338.603 7.46481 341.482 4.80193C344.36 2.13905 347.815 0.807617 351.845 0.807617C355.912 0.807617 359.366 2.13905 362.209 4.80193C365.088 7.46481 366.527 10.6675 366.527 14.4099C366.527 18.1523 365.088 21.355 362.209 24.0178C359.366 26.6807 355.912 28.0122 351.845 28.0122Z" fill="white"/>
<path d="M284.711 121.069C275.715 121.069 268.014 119.288 261.609 115.725C255.203 112.127 250.292 107.125 246.873 100.72C243.454 94.2784 241.745 86.8115 241.745 78.3191C241.745 69.8267 243.454 62.3778 246.873 55.9725C250.292 49.5312 255.203 44.5293 261.609 40.9668C268.014 37.3683 275.715 35.5691 284.711 35.5691C292.844 35.5691 299.879 37.0445 305.816 39.9952C311.79 42.91 316.414 47.0483 319.688 52.41C322.963 57.7358 324.618 63.9971 324.654 71.1941H297.018C296.622 66.8399 295.363 63.5293 293.239 61.2623C291.152 58.9592 288.453 57.8077 285.143 57.8077C282.552 57.8077 280.285 58.5634 278.342 60.0748C276.399 61.5501 274.887 63.7992 273.808 66.8219C272.728 69.8087 272.188 73.5691 272.188 78.1032C272.188 82.6373 272.728 86.4157 273.808 89.4384C274.887 92.4251 276.399 94.6742 278.342 96.1856C280.285 97.6609 282.552 98.3986 285.143 98.3986C287.338 98.3986 289.281 97.8948 290.972 96.8873C292.664 95.8437 294.031 94.3324 295.075 92.3532C296.154 90.338 296.802 87.8911 297.018 85.0123H324.654C324.546 92.3172 322.873 98.6865 319.634 104.12C316.396 109.518 311.808 113.692 305.87 116.643C299.969 119.594 292.916 121.069 284.711 121.069Z" fill="white"/>
<path d="M199.818 83.2848V36.6484H229.614V119.558H201.33V103.796H200.466C198.667 109.086 195.518 113.224 191.02 116.211C186.522 119.162 181.178 120.637 174.989 120.637C169.195 120.637 164.121 119.306 159.767 116.643C155.449 113.98 152.084 110.309 149.673 105.631C147.298 100.953 146.093 95.5916 146.057 89.5462V36.6484H175.852V83.2848C175.888 87.3871 176.932 90.6077 178.983 92.9467C181.07 95.2858 183.985 96.4553 187.727 96.4553C190.21 96.4553 192.351 95.9335 194.151 94.8899C195.986 93.8104 197.389 92.299 198.361 90.3558C199.368 88.3767 199.854 86.0197 199.818 83.2848Z" fill="white"/>
<path d="M96.0334 9.01221H125.829V92.569C125.865 94.2603 126.351 95.5558 127.286 96.4554C128.258 97.319 129.643 97.7508 131.443 97.7508C132.378 97.7508 133.134 97.7149 133.71 97.6429C134.285 97.5709 134.753 97.463 135.113 97.319L139.431 117.83C138.208 118.226 136.732 118.64 135.005 119.072C133.278 119.504 130.651 119.81 127.124 119.989C116.437 120.529 108.592 118.874 103.59 115.024C98.5884 111.137 96.0694 104.588 96.0334 95.3758V9.01221Z" fill="white"/>
<path d="M43.2842 121.069C34.4319 121.069 26.8031 119.378 20.3978 115.995C14.0285 112.577 9.11657 107.683 5.66202 101.313C2.24346 94.9081 0.53418 87.2433 0.53418 78.3191C0.53418 69.7547 2.26145 62.2698 5.716 55.8645C9.17054 49.4592 14.0465 44.4753 20.3438 40.9128C26.6412 37.3503 34.0721 35.5691 42.6365 35.5691C48.8978 35.5691 54.5654 36.5407 59.6393 38.4839C64.7132 40.427 69.0493 43.2519 72.6478 46.9583C76.2463 50.6287 79.0171 55.0909 80.9603 60.3447C82.9035 65.5984 83.8751 71.518 83.8751 78.1032V85.0123H9.81827V68.6032H56.4546C56.4186 66.2282 55.8069 64.1411 54.6194 62.3418C53.4679 60.5066 51.9026 59.0852 49.9234 58.0776C47.9802 57.034 45.7671 56.5123 43.2842 56.5123C40.8732 56.5123 38.6601 57.034 36.645 58.0776C34.6298 59.0852 33.0105 60.4886 31.787 62.2878C30.5995 64.0871 29.9698 66.1922 29.8978 68.6032V86.3077C29.8978 88.9706 30.4556 91.3456 31.5711 93.4327C32.6866 95.5198 34.288 97.1572 36.3751 98.3447C38.4622 99.5322 40.9811 100.126 43.9319 100.126C45.983 100.126 47.8543 99.838 49.5455 99.2623C51.2728 98.6865 52.7482 97.8589 53.9717 96.7793C55.1952 95.6638 56.0948 94.3323 56.6705 92.785H83.8751C82.9395 98.5426 80.7264 103.544 77.2359 107.791C73.7454 112.001 69.1213 115.276 63.3637 117.615C57.6421 119.918 50.949 121.069 43.2842 121.069Z" fill="white"/>
</svg>
